<svg width="28" height="30" viewBox="0 0 28 30" fill="none" xmlns="http://www.w3.org/2000/svg">
<path d="M23.8333 0V3.33333H20.5V0H7.16667V3.33333H3.83333V0H0.5V30H3.83333V26.6667H7.16667V30H20.5V26.6667H23.8333V30H27.1667V0H23.8333ZM7.16667 23.3333H3.83333V20H7.16667V23.3333ZM7.16667 16.6667H3.83333V13.3333H7.16667V16.6667ZM7.16667 10H3.83333V6.66667H7.16667V10ZM23.8333 23.3333H20.5V20H23.8333V23.3333ZM23.8333 16.6667H20.5V13.3333H23.8333V16.6667ZM23.8333 10H20.5V6.66667H23.8333V10Z" fill="#5A6A90"/>
</svg>
