<svg width="14" height="14" viewBox="0 0 14 14" fill="none" xmlns="http://www.w3.org/2000/svg">
<path d="M12.9663 3.41674H8.6514L10.1836 0.902733C10.3164 0.684775 10.2474 0.400389 10.0295 0.267562C9.81153 0.134673 9.52712 0.203721 9.39429 0.421679L7.56895 3.41674H6.43152L4.60618 0.421679C4.47335 0.203783 4.18897 0.134766 3.97101 0.267562C3.75305 0.400419 3.68403 0.684775 3.81689 0.902733L5.34907 3.41674H1.03409C0.475733 3.41674 0.0214844 3.87098 0.0214844 4.42931V12.7875C0.0214844 13.3458 0.475733 13.8001 1.03409 13.8001H12.9663C13.5247 13.8001 13.979 13.3458 13.979 12.7875V4.42931C13.9789 3.87098 13.5247 3.41674 12.9663 3.41674ZM9.80947 11.5727C9.80947 11.8767 9.56304 12.1232 9.25903 12.1232H2.21487C1.91088 12.1231 1.66446 11.8767 1.66446 11.5727V5.6441C1.66446 5.34012 1.91088 5.09366 2.2149 5.09366H9.25903C9.56301 5.09366 9.80947 5.34012 9.80947 5.6441V11.5727ZM11.8465 11.3968C11.3199 11.3968 10.8914 10.9683 10.8914 10.4417C10.8914 9.91499 11.3199 9.48653 11.8465 9.48653C12.3732 9.48653 12.8017 9.91499 12.8017 10.4417C12.8017 10.9684 12.3732 11.3968 11.8465 11.3968ZM11.8465 7.73029C11.3199 7.73029 10.8914 7.30183 10.8914 6.77515C10.8914 6.24846 11.3199 5.82 11.8465 5.82C12.3732 5.82 12.8017 6.24846 12.8017 6.77515C12.8017 7.30183 12.3732 7.73029 11.8465 7.73029Z" fill="white" fill-opacity="0.86"/>
</svg>
