<svg width="36" height="34" viewBox="0 0 36 34" fill="none" xmlns="http://www.w3.org/2000/svg">
<path d="M32.9153 8.04196H22.128L25.9585 1.75695C26.2906 1.21206 26.1181 0.501093 25.5732 0.169027C25.0283 -0.163194 24.3173 0.00942503 23.9852 0.55432L19.4219 8.04196H16.5783L12.015 0.55432C11.6829 0.00957907 10.9719 -0.162963 10.427 0.169027C9.88214 0.50117 9.70959 1.21206 10.0417 1.75695L13.8722 8.04196H3.08474C1.68884 8.04196 0.553223 9.17758 0.553223 10.5734V31.4688C0.553223 32.8646 1.68884 34.0003 3.08474 34.0003H32.9154C34.3113 34.0003 35.4469 32.8646 35.4469 31.4688V10.5734C35.4468 9.17758 34.3112 8.04196 32.9153 8.04196ZM25.0232 28.4319C25.0232 29.1919 24.4071 29.808 23.6471 29.808H6.03668C5.27672 29.8079 4.66065 29.1919 4.66065 28.4319V13.6104C4.66065 12.8504 5.27672 12.2343 6.03676 12.2343H23.6471C24.407 12.2343 25.0232 12.8504 25.0232 13.6104V28.4319ZM30.1159 27.9922C28.7992 27.9922 27.728 26.9209 27.728 25.6043C27.728 24.2876 28.7992 23.2164 30.1159 23.2164C31.4325 23.2164 32.5037 24.2876 32.5037 25.6043C32.5037 26.921 31.4325 27.9922 30.1159 27.9922ZM30.1159 18.8259C28.7992 18.8259 27.728 17.7547 27.728 16.438C27.728 15.1213 28.7992 14.0501 30.1159 14.0501C31.4325 14.0501 32.5037 15.1213 32.5037 16.438C32.5037 17.7547 31.4325 18.8259 30.1159 18.8259Z" fill="#5A6A90"/>
</svg>
