<svg width="155" height="155" viewBox="0 0 155 155" fill="none" xmlns="http://www.w3.org/2000/svg">
<path d="M58 98.2206V56.7581C58 53.6581 59.3562 51.3977 62.0687 49.9768C64.7812 48.556 67.4292 48.6852 70.0125 50.3643L102.175 70.9018C104.629 72.3227 105.856 74.5185 105.856 77.4893C105.856 80.4602 104.629 82.656 102.175 84.0768L70.0125 104.614C67.4292 106.293 64.7812 106.423 62.0687 105.002C59.3562 103.581 58 101.321 58 98.2206Z" fill="#EB3223"/>
<path fill-rule="evenodd" clip-rule="evenodd" d="M33.6179 33.6103C30.4086 36.8195 27.6257 40.2088 25.269 43.778L11.8148 36.3353C14.9232 31.3498 18.5406 26.7938 22.6671 22.6673C26.9068 18.4276 31.5999 14.7243 36.7464 11.5574L44.8393 24.5828C40.8815 27.0779 37.1411 30.0871 33.6179 33.6103ZM6.1054 47.2735C6.54948 46.2437 7.01092 45.2285 7.4897 44.228L20.8975 51.6451C17.3645 59.3582 15.5654 67.8032 15.5002 76.9803L0 76.9778C0.0649155 66.4513 2.10005 56.5499 6.1054 47.2735ZM0.436912 85.9778C1.23555 93.5725 3.12504 100.821 6.1054 107.724C7.33672 110.579 8.70141 113.322 10.1995 115.952L23.6024 108.544C19.5634 101.66 17.0342 94.139 16.0147 85.9804L0.436912 85.9778ZM22.6671 132.33C19.9217 129.584 17.4015 126.649 15.1067 123.523L28.752 115.981C30.2474 117.836 31.8694 119.638 33.6179 121.387C36.4825 124.251 39.4908 126.776 42.6427 128.961L34.8509 142.233C30.4418 139.344 26.3806 136.043 22.6671 132.33ZM42.6472 146.73C44.155 147.491 45.697 148.212 47.2734 148.892C56.5558 152.9 66.4642 154.935 76.9984 154.997V139.497C67.3192 139.431 58.4549 137.437 50.4056 133.515L42.6472 146.73ZM52.8201 20.374C60.2179 17.1846 68.2774 15.56 76.9984 15.5002V0C66.4642 0.0622878 56.5558 2.09488 47.2734 6.09777C46.3977 6.47588 45.5326 6.86652 44.678 7.26967L52.8201 20.374ZM107.723 148.892C100.827 151.869 93.5855 153.758 85.9984 154.558V138.98C99.5545 137.283 111.351 131.419 121.387 121.387C133.461 109.307 139.498 94.6777 139.498 77.4985C139.498 60.3194 133.461 45.6899 121.387 33.6103C111.351 23.5785 99.5545 17.714 85.9984 16.0169V0.438658C93.5855 1.23753 100.827 3.1239 107.723 6.09777C117.153 10.1691 125.355 15.6923 132.33 22.6673C139.305 29.6423 144.825 37.8444 148.891 47.2735C152.963 56.7027 154.998 66.7777 154.998 77.4985C154.998 88.2194 152.963 98.2943 148.891 107.724C144.825 117.153 139.305 125.355 132.33 132.33C125.355 139.305 117.153 144.825 107.723 148.892Z" fill="#EB3223"/>
</svg>
