<svg width="43" height="34" viewBox="0 0 43 34" fill="none" xmlns="http://www.w3.org/2000/svg">
<path d="M34.2837 -0.456055L38.5504 8.07728H32.1504L27.8837 -0.456055H23.6171L27.8837 8.07728H21.4837L17.2171 -0.456055H12.9504L17.2171 8.07728H10.8171L6.55039 -0.456055H4.41706C3.85785 -0.455709 3.30422 -0.344957 2.78791 -0.130151C2.27161 0.084654 1.8028 0.399285 1.40837 0.795693C1.01395 1.1921 0.701672 1.66248 0.489457 2.17986C0.277242 2.69723 0.169267 3.25141 0.171724 3.81061L0.150391 29.4106C0.150391 30.5422 0.599913 31.6274 1.40007 32.4276C2.20022 33.2278 3.28547 33.6773 4.41706 33.6773H38.5504C39.682 33.6773 40.7672 33.2278 41.5674 32.4276C42.3675 31.6274 42.8171 30.5422 42.8171 29.4106V-0.456055H34.2837Z" fill="#ED4E4E"/>
</svg>
